<svg width="14" height="14" viewBox="0 0 14 14" fill="none" xmlns="http://www.w3.org/2000/svg">
<g clip-path="url(#clip0_2338_4849)">
<path d="M12.8332 12.8333L11.6665 11.6666M6.70817 12.25C7.43591 12.25 8.15653 12.1066 8.82887 11.8281C9.50122 11.5496 10.1121 11.1414 10.6267 10.6268C11.1413 10.1123 11.5495 9.50134 11.828 8.829C12.1065 8.15665 12.2498 7.43603 12.2498 6.70829C12.2498 5.98055 12.1065 5.25993 11.828 4.58759C11.5495 3.91524 11.1413 3.30433 10.6267 2.78974C10.1121 2.27515 9.50122 1.86695 8.82887 1.58846C8.15653 1.30997 7.43591 1.16663 6.70817 1.16663C5.23843 1.16663 3.82888 1.75048 2.78962 2.78974C1.75036 3.82901 1.1665 5.23855 1.1665 6.70829C1.1665 8.17803 1.75036 9.58758 2.78962 10.6268C3.82888 11.6661 5.23843 12.25 6.70817 12.25V12.25Z" stroke="#50606B" stroke-width="0.9" stroke-linecap="round" stroke-linejoin="round"/>
</g>
<defs>
<clipPath id="clip0_2338_4849">
<rect width="14" height="14" fill="white"/>
</clipPath>
</defs>
</svg>
