<svg width="24" height="25" viewBox="0 0 24 25" fill="none" xmlns="http://www.w3.org/2000/svg">
<rect y="0.251953" width="24" height="24" rx="12" fill="#FF424B"/>
<path d="M18 8.2386C15.78 8.0186 13.5467 7.90527 11.32 7.90527C10 7.90527 8.68 7.97193 7.36 8.10527L6 8.2386M9.66667 7.56527L9.81333 6.69193C9.92 6.0586 10 5.58527 11.1267 5.58527H12.8733C14 5.58527 14.0867 6.08527 14.1867 6.6986L14.3333 7.56527M16.5667 10.3453L16.1333 17.0586C16.06 18.1053 16 18.9186 14.14 18.9186H9.86C8 18.9186 7.94 18.1053 7.86667 17.0586L7.43333 10.3453M10.8867 15.2519H13.1067M10.3333 12.5853H13.6667" stroke="white" stroke-width="0.9" stroke-linecap="round" stroke-linejoin="round"/>
</svg>
