<svg width="60" height="60" viewBox="0 0 60 60" fill="none" xmlns="http://www.w3.org/2000/svg">
<rect width="60" height="60" rx="4" fill="#F6F7F9"/>
<path d="M4.68555 11.4727C4.68555 10.6177 5.37865 9.92462 6.23363 9.92462H34.6375C35.4925 9.92462 36.1856 10.6177 36.1856 11.4727C36.1856 12.3277 35.4925 13.0208 34.6375 13.0208H6.23363C5.37865 13.0208 4.68555 12.3277 4.68555 11.4727Z" fill="#9A9FA5"/>
<path d="M4.68555 16.2997C4.68555 15.4447 5.37865 14.7516 6.23363 14.7516H46.5985C47.4535 14.7516 48.1466 15.4447 48.1466 16.2997C48.1466 17.1546 47.4535 17.8477 46.5985 17.8477H6.23363C5.37865 17.8477 4.68555 17.1546 4.68555 16.2997Z" fill="#E0E3EB"/>
<path d="M4.68555 25.6076C4.68555 24.7526 5.37865 24.0595 6.23363 24.0595H50.9263C51.7813 24.0595 52.4744 24.7526 52.4744 25.6076C52.4744 26.4626 51.7813 27.1557 50.9263 27.1557H6.23363C5.37865 27.1557 4.68555 26.4626 4.68555 25.6076Z" fill="#9A9FA5"/>
<path d="M4.68555 31.0115C4.68555 30.1565 5.37865 29.4634 6.23363 29.4634H44.8683C45.7233 29.4634 46.4164 30.1565 46.4164 31.0115C46.4164 31.8665 45.7233 32.5596 44.8683 32.5596H6.23363C5.37865 32.5596 4.68555 31.8665 4.68555 31.0115Z" fill="#9A9FA5"/>
<path d="M4.68555 36.4153C4.68555 35.5604 5.37865 34.8672 6.23363 34.8672H44.8683C45.7233 34.8672 46.4164 35.5604 46.4164 36.4153C46.4164 37.2703 45.7233 37.9634 44.8683 37.9634H6.23363C5.37865 37.9634 4.68555 37.2703 4.68555 36.4153Z" fill="#9A9FA5"/>
<path d="M4.68555 40.848C4.68555 40.5294 4.94384 40.2711 5.26247 40.2711H21.7115C22.0302 40.2711 22.2885 40.5294 22.2885 40.848V52.2135C22.2885 52.5322 22.0302 52.7905 21.7115 52.7905H5.26247C4.94384 52.7905 4.68555 52.5322 4.68555 52.2135V40.848Z" fill="#E0E3EB"/>
</svg>
