<svg width="60" height="61" viewBox="0 0 60 61" fill="none" xmlns="http://www.w3.org/2000/svg">
<g clip-path="url(#clip0_2418_15550)">
<rect y="0.133789" width="60" height="60" rx="4" fill="#F6F7F9"/>
<path fill-rule="evenodd" clip-rule="evenodd" d="M-1.46875 44.272V54.2508C-1.46875 58.6691 2.11297 62.2508 6.53125 62.2508H55.0613C59.4796 62.2508 63.0613 58.6691 63.0613 54.2508V44.272C37.2738 25.3066 23.0972 23.8804 -1.46875 44.272Z" fill="#9A9FA5"/>
<path fill-rule="evenodd" clip-rule="evenodd" d="M63.0621 19.8408V54.2508C63.0621 58.6691 59.4804 62.2508 55.0621 62.2508H14.6543C35.0238 33.9213 49.6876 20.2052 63.0621 19.8408Z" fill="#E0E3EB"/>
<path d="M15.3681 12.3102C15.3681 13.9453 14.0391 15.2708 12.3996 15.2708C10.7601 15.2708 9.43097 13.9453 9.43097 12.3102C9.43097 10.675 10.7601 9.34949 12.3996 9.34949C14.0391 9.34949 15.3681 10.675 15.3681 12.3102Z" fill="#E0E3EB"/>
<path d="M25.8256 14.0285C25.8256 15.6636 24.4965 16.9892 22.857 16.9892C21.2175 16.9892 19.8884 15.6636 19.8884 14.0285C19.8884 12.3934 21.2175 11.0678 22.857 11.0678C24.4965 11.0678 25.8256 12.3934 25.8256 14.0285Z" fill="#E0E3EB"/>
<path d="M23.2987 12.3102C23.2987 13.5299 22.3073 14.5187 21.0843 14.5187C19.8613 14.5187 18.8699 13.5299 18.8699 12.3102C18.8699 11.0904 19.8613 10.1016 21.0843 10.1016C22.3073 10.1016 23.2987 11.0904 23.2987 12.3102Z" fill="#E0E3EB"/>
<path d="M22.857 15.8282C22.857 17.0479 21.8655 18.0367 20.6426 18.0367C19.4196 18.0367 18.4281 17.0479 18.4281 15.8282C18.4281 14.6084 19.4196 13.6196 20.6426 13.6196C21.8655 13.6196 22.857 14.6084 22.857 15.8282Z" fill="#E0E3EB"/>
<path d="M12.3996 13.4232C12.3996 14.643 11.4081 15.6318 10.1851 15.6318C8.96214 15.6318 7.9707 14.643 7.9707 13.4232C7.9707 12.2035 8.96214 11.2147 10.1851 11.2147C11.4081 11.2147 12.3996 12.2035 12.3996 13.4232Z" fill="#E0E3EB"/>
<path d="M21.0843 11.6051C21.0843 13.829 19.2767 15.6318 17.0469 15.6318C14.8171 15.6318 13.0094 13.829 13.0094 11.6051C13.0094 9.38123 14.8171 7.57843 17.0469 7.57843C19.2767 7.57843 21.0843 9.38123 21.0843 11.6051Z" fill="#E0E3EB"/>
<path d="M17.5058 15.2414C17.5058 17.4653 15.6982 19.2681 13.4684 19.2681C11.2386 19.2681 9.43097 17.4653 9.43097 15.2414C9.43097 13.0175 11.2386 11.2147 13.4684 11.2147C15.6982 11.2147 17.5058 13.0175 17.5058 15.2414Z" fill="#E0E3EB"/>
<path d="M21.3766 14.7122C21.3766 16.936 19.569 18.7388 17.3392 18.7388C15.1094 18.7388 13.3018 16.936 13.3018 14.7122C13.3018 12.4883 15.1094 10.6855 17.3392 10.6855C19.569 10.6855 21.3766 12.4883 21.3766 14.7122Z" fill="#E0E3EB"/>
<path d="M23.2987 14.0285C23.2987 16.4133 20.1943 18.3466 16.3648 18.3466C12.5354 18.3466 9.43097 16.4133 9.43097 14.0285C9.43097 11.6437 12.5354 9.71042 16.3648 9.71042C20.1943 9.71042 23.2987 11.6437 23.2987 14.0285Z" fill="#E0E3EB"/>
</g>
<defs>
<clipPath id="clip0_2418_15550">
<rect y="0.133789" width="60" height="60" rx="4" fill="white"/>
</clipPath>
</defs>
</svg>
