<svg width="24" height="25" viewBox="0 0 24 25" fill="none" xmlns="http://www.w3.org/2000/svg">
<rect y="0.251953" width="24" height="24" rx="12" fill="#FF9333"/>
<g clip-path="url(#clip0_2418_15505)">
<g clip-path="url(#clip1_2418_15505)">
<path d="M17.8327 18.0853L16.666 16.9186M11.7077 17.502C12.4354 17.502 13.156 17.3586 13.8284 17.0801C14.5007 16.8016 15.1116 16.3934 15.6262 15.8789C16.1408 15.3643 16.549 14.7534 16.8275 14.081C17.106 13.4087 17.2493 12.688 17.2493 11.9603C17.2493 11.2326 17.106 10.5119 16.8275 9.8396C16.549 9.16726 16.1408 8.55635 15.6262 8.04176C15.1116 7.52717 14.5007 7.11897 13.8284 6.84047C13.156 6.56198 12.4354 6.41864 11.7077 6.41864C10.2379 6.41864 8.8284 7.00249 7.78913 8.04176C6.74987 9.08102 6.16602 10.4906 6.16602 11.9603C6.16602 13.43 6.74987 14.8396 7.78913 15.8789C8.8284 16.9181 10.2379 17.502 11.7077 17.502V17.502Z" stroke="#FFFFFE" stroke-width="0.9" stroke-linecap="round" stroke-linejoin="round"/>
</g>
</g>
<defs>
<clipPath id="clip0_2418_15505">
<rect width="14" height="14" fill="white" transform="translate(5 5.25195)"/>
</clipPath>
<clipPath id="clip1_2418_15505">
<rect width="14" height="14" fill="white" transform="translate(5 5.25195)"/>
</clipPath>
</defs>
</svg>
