<svg width="16" height="16" viewBox="0 0 16 16" fill="none" xmlns="http://www.w3.org/2000/svg">
<path d="M14 3.98668C11.78 3.76668 9.54667 3.65334 7.32 3.65334C6 3.65334 4.68 3.72001 3.36 3.85334L2 3.98668M5.66667 3.31334L5.81333 2.44001C5.92 1.80668 6 1.33334 7.12667 1.33334H8.87333C10 1.33334 10.0867 1.83334 10.1867 2.44668L10.3333 3.31334M12.5667 6.09334L12.1333 12.8067C12.06 13.8533 12 14.6667 10.14 14.6667H5.86C4 14.6667 3.94 13.8533 3.86667 12.8067L3.43333 6.09334M6.88667 11H9.10667M6.33333 8.33334H9.66667" stroke="#EC4C29" stroke-width="0.9" stroke-linecap="round" stroke-linejoin="round"/>
</svg>