<svg width="16" height="16" viewBox="0 0 16 16" fill="none" xmlns="http://www.w3.org/2000/svg">
<g clip-path="url(#clip0_14_3499)">
<path d="M7.3335 1.33334H6.00016C2.66683 1.33334 1.3335 2.66668 1.3335 6.00001V10C1.3335 13.3333 2.66683 14.6667 6.00016 14.6667H10.0002C13.3335 14.6667 14.6668 13.3333 14.6668 10V8.66668" stroke="#536891" stroke-width="0.9" stroke-linecap="round" stroke-linejoin="round"/>
<path d="M10.6933 2.01332L5.43992 7.26665C5.23992 7.46665 5.03992 7.85999 4.99992 8.14665L4.71325 10.1533C4.60659 10.88 5.11992 11.3867 5.84659 11.2867L7.85325 11C8.13325 10.96 8.52659 10.76 8.73325 10.56L13.9866 5.30665C14.8933 4.39999 15.3199 3.34665 13.9866 2.01332C12.6533 0.679985 11.5999 1.10665 10.6933 2.01332Z" stroke="#536891" stroke-width="0.9" stroke-miterlimit="10" stroke-linecap="round" stroke-linejoin="round"/>
<path d="M9.93994 2.76666C10.161 3.55164 10.5799 4.26671 11.1566 4.84336C11.7332 5.42001 12.4483 5.83894 13.2333 6.06" stroke="#536891" stroke-width="0.9" stroke-miterlimit="10" stroke-linecap="round" stroke-linejoin="round"/>
</g>
<defs>
<clipPath id="clip0_14_3499">
<rect width="16" height="16" fill="white"/>
</clipPath>
</defs>
</svg>
