<svg width="16" height="17" viewBox="0 0 16 17" fill="none" xmlns="http://www.w3.org/2000/svg">
<path d="M2.27344 15.1667C2.27344 12.5867 4.8401 10.5 8.0001 10.5C8.6401 10.5 9.2601 10.5867 9.8401 10.7467M8.0001 8.50001C8.88416 8.50001 9.73201 8.14882 10.3571 7.5237C10.9822 6.89858 11.3334 6.05073 11.3334 5.16668C11.3334 4.28262 10.9822 3.43478 10.3571 2.80965C9.73201 2.18453 8.88416 1.83334 8.0001 1.83334C7.11605 1.83334 6.2682 2.18453 5.64308 2.80965C5.01796 3.43478 4.66677 4.28262 4.66677 5.16668C4.66677 6.05073 5.01796 6.89858 5.64308 7.5237C6.2682 8.14882 7.11605 8.50001 8.0001 8.50001Z" stroke="white" stroke-width="0.9" stroke-linecap="round" stroke-linejoin="round"/>
<path d="M12.9933 12.4867H11.0066M11.9999 11.5133V13.5067M14.6666 12.5C14.6666 12.7133 14.6399 12.92 14.5866 13.12C14.5266 13.3867 14.4199 13.6467 14.2799 13.8733C14.0449 14.2683 13.7111 14.5953 13.3113 14.8221C12.9115 15.0489 12.4595 15.1676 11.9999 15.1667C11.3436 15.1686 10.7105 14.9235 10.2266 14.48C10.0266 14.3067 9.85326 14.1 9.71992 13.8733C9.46615 13.4603 9.33227 12.9848 9.33326 12.5C9.33282 12.1497 9.40149 11.8027 9.53535 11.479C9.66921 11.1553 9.86562 10.8611 10.1133 10.6134C10.361 10.3657 10.6552 10.1693 10.9789 10.0354C11.3026 9.90158 11.6496 9.83291 11.9999 9.83335C12.7866 9.83335 13.4999 10.1733 13.9799 10.72C14.4066 11.1933 14.6666 11.82 14.6666 12.5Z" stroke="white" stroke-width="0.9" stroke-miterlimit="10" stroke-linecap="round" stroke-linejoin="round"/>
</svg>
