<svg width="16" height="16" viewBox="0 0 16 16" fill="none" xmlns="http://www.w3.org/2000/svg">
<path d="M2.11328 4.95999L7.99995 8.36666L13.8466 4.97999M7.99995 14.4067V8.35999" stroke="#9FC540" stroke-width="0.9" stroke-linecap="round" stroke-linejoin="round"/>
<path d="M14.4066 8.55334V6.11334C14.4066 5.19334 13.7466 4.07334 12.9399 3.62668L9.37993 1.65334C8.61993 1.22668 7.37993 1.22668 6.61993 1.65334L3.05993 3.62668C2.25326 4.07334 1.59326 5.19334 1.59326 6.11334V9.88668C1.59326 10.8067 2.25326 11.9267 3.05993 12.3733L6.61993 14.3467C6.99993 14.56 7.49993 14.6667 7.99993 14.6667C8.49993 14.6667 8.99993 14.56 9.37993 14.3467" stroke="#9FC540" stroke-width="0.9" stroke-linecap="round" stroke-linejoin="round"/>
<path d="M15.3332 14.6667L14.6665 14M12.7998 14.2667C13.3656 14.2667 13.9083 14.0419 14.3083 13.6418C14.7084 13.2418 14.9332 12.6991 14.9332 12.1333C14.9332 11.5675 14.7084 11.0249 14.3083 10.6248C13.9083 10.2248 13.3656 10 12.7998 10C12.234 10 11.6914 10.2248 11.2913 10.6248C10.8913 11.0249 10.6665 11.5675 10.6665 12.1333C10.6665 12.6991 10.8913 13.2418 11.2913 13.6418C11.6914 14.0419 12.234 14.2667 12.7998 14.2667Z" stroke="#9FC540" stroke-width="0.9" stroke-linecap="round" stroke-linejoin="round"/>
</svg>
